# xmcd
#
# Track frame offsets:
#	150
#	11231
#	26424
#	41645
#	58466
#
# Disc length: 1038 seconds
#
# Revision: 1
# Processed by: cddbd v1.4PL0 Copyright (c) Steve Scherf et al.
# Submitted via: EasyCDDAExtractor 5.1.0
#
DISCID=40040c05
DTITLE=Alan Marcus Band - Saudades
DYEAR=2002
DGENRE=Blues
TTITLE0=Saudades
TTITLE1=Feel The Pain
TTITLE2=Crying Out Loud
TTITLE3=It's Alright
TTITLE4=Goodbye Jam
EXTD=
EXTT0=
EXTT1=
EXTT2=
EXTT3=
EXTT4=
PLAYORDER=
